HIERARCHY
ROOT Pelvis
{
	OFFSET 0.000000 0.000000 0.000000
	CHANNELS 6 Xposition Yposition Zposition Xrotation Yrotation Zrotation
	JOINT LeftUpLeg_virtual
	{
		OFFSET 0.000000 0.000000 0.000000
		CHANNELS 3 Xrotation Yrotation Zrotation
		JOINT LeftUpLeg
		{
			OFFSET 8.479700 -4.795502 -0.379100
			CHANNELS 3 Xrotation Yrotation Zrotation
			JOINT LeftLeg
			{
				OFFSET 0.024144 -32.555107 0.112900
				CHANNELS 3 Xrotation Yrotation Zrotation
				JOINT LeftFoot
				{
					OFFSET -0.024144 -32.638630 -3.012600
					CHANNELS 3 Xrotation Yrotation Zrotation
					JOINT LeftToeBase
					{
						OFFSET 0.970200 -13.225400 11.864200
						CHANNELS 3 Xrotation Yrotation Zrotation
						End Site
						{
							OFFSET 0 0 0
						}
					}
				}
			}
		}
	}
	JOINT RightUpLeg_virtual
	{
		OFFSET 0.000000 0.000000 0.000000
		CHANNELS 3 Xrotation Yrotation Zrotation
		JOINT RightUpLeg
		{
			OFFSET -8.479700 -4.795502 -0.379100
			CHANNELS 3 Xrotation Yrotation Zrotation
			JOINT RightLeg
			{
				OFFSET -0.023144 -32.555092 0.112900
				CHANNELS 3 Xrotation Yrotation Zrotation
				JOINT RightFoot
				{
					OFFSET 0.023144 -32.638641 -3.012700
					CHANNELS 3 Xrotation Yrotation Zrotation
					JOINT RightToeBase
					{
						OFFSET -0.970200 -13.225400 11.864200
						CHANNELS 3 Xrotation Yrotation Zrotation
						End Site
						{
							OFFSET 0 0 0
						}
					}
				}
			}
		}
	}
	JOINT Hips_virtual
	{
		OFFSET 0.000000 0.000000 0.000000
		CHANNELS 3 Xrotation Yrotation Zrotation
		JOINT Hips
		{
			OFFSET -0.000000 -0.000000 -0.000000
			CHANNELS 3 Xrotation Yrotation Zrotation
			JOINT Spine
			{
				OFFSET 0.000000 7.722000 1.166200
				CHANNELS 3 Xrotation Yrotation Zrotation
				JOINT Spine1
				{
					OFFSET 0.000000 12.024101 0.248800
					CHANNELS 3 Xrotation Yrotation Zrotation
					JOINT Spine2
					{
						OFFSET 0.000000 11.502998 -0.491200
						CHANNELS 3 Xrotation Yrotation Zrotation
						JOINT Neck_virtual
						{
							OFFSET 0.000000 0.000000 0.000000
							CHANNELS 3 Xrotation Yrotation Zrotation
							JOINT Neck
							{
								OFFSET 0.000000 18.430702 -3.123100
								CHANNELS 3 Xrotation Yrotation Zrotation
								JOINT Head
								{
									OFFSET 0.000000 9.051102 1.034000
									CHANNELS 3 Xrotation Yrotation Zrotation
									End Site
									{
										OFFSET 0 0 0
									}
								}
							}
						}
						JOINT LeftShoulder_virtual
						{
							OFFSET 0.000000 0.000000 0.000000
							CHANNELS 3 Xrotation Yrotation Zrotation
							JOINT LeftShoulder
							{
								OFFSET 6.197800 13.665199 -4.064700
								CHANNELS 3 Xrotation Yrotation Zrotation
								JOINT LeftArm
								{
									OFFSET 7.778100 -0.187103 -1.709300
									CHANNELS 3 Xrotation Yrotation Zrotation
									JOINT LeftForeArm
									{
										OFFSET 22.049376 0.000000 0.000000
										CHANNELS 3 Xrotation Yrotation Zrotation
										JOINT LeftHand
										{
											OFFSET 23.009392 0.000000 0.000000
											CHANNELS 3 Xrotation Yrotation Zrotation
											End Site
											{
												OFFSET 0 0 0
											}
										}
									}
								}
							}
						}
						JOINT RightShoulder_virtual
						{
							OFFSET 0.000000 0.000000 0.000000
							CHANNELS 3 Xrotation Yrotation Zrotation
							JOINT RightShoulder
							{
								OFFSET -6.197800 13.665199 -4.064700
								CHANNELS 3 Xrotation Yrotation Zrotation
								JOINT RightArm
								{
									OFFSET -7.778100 -0.187103 -1.709300
									CHANNELS 3 Xrotation Yrotation Zrotation
									JOINT RightForeArm
									{
										OFFSET -22.049376 0.000000 0.000000
										CHANNELS 3 Xrotation Yrotation Zrotation
										JOINT RightHand
										{
											OFFSET -23.009392 0.000000 0.000000
											CHANNELS 3 Xrotation Yrotation Zrotation
											End Site
											{
												OFFSET 0 0 0
											}
										}
									}
								}
							}
						}
					}
				}
			}
		}
	}
}
MOTION
Frames: 4
Frame Time: 0.03333333
-9.189382 77.261757 26.518986 0.000000 0.000000 0.000000 25.053025 0.358519 -20.834937 -69.050330 -2.521708 16.555135 33.775490 9.964204 -1.109875 -4.673084 6.291759 -1.719838 0.000000 0.000000 0.000000 27.107409 5.263804 -14.816540 -11.299414 -21.303430 -15.286689 86.879378 1.370544 -0.022973 -3.457275 -4.940387 10.188645 0.000000 0.000000 0.000000 27.861697 12.456407 -18.949054 0.208115 7.345689 -3.199303 4.838896 11.309542 4.394969 15.725286 2.302506 -13.750259 0.000000 0.000000 0.000000 17.605209 3.167703 -9.649914 -28.269820 -16.331633 21.039503 0.000000 0.000000 0.000000 8.021191 7.007451 -5.585276 3.336043 0.439989 8.332973 23.192358 -30.271166 -29.148167 -2.181412 -44.665301 -3.187317 0.000000 0.000000 0.000000 4.020619 11.992553 0.312563 13.436449 21.878682 -6.175288 26.418960 45.611556 -15.365262 0.527805 65.333696 -0.499071 0.000000 0.000000 0.000000 
-9.240748 76.785843 27.586161 0.000000 0.000000 0.000000 22.945935 2.269707 -19.889593 -68.652164 -1.861636 15.795714 36.962037 8.071632 -0.862816 -5.080182 6.028970 -1.901949 0.000000 0.000000 0.000000 25.654506 7.219994 -14.704147 -14.702648 -21.783029 -15.301635 83.850954 2.312705 -1.117261 -3.384551 -4.711070 10.228308 0.000000 0.000000 0.000000 26.072972 13.617706 -18.492329 -0.120558 6.155916 -3.710372 5.426411 10.319050 3.663719 15.864467 1.906531 -13.558408 0.000000 0.000000 0.000000 17.762491 3.050639 -8.977626 -27.746587 -15.970196 20.035532 0.000000 0.000000 0.000000 8.214491 6.247641 -5.636347 3.255103 1.237806 7.972103 21.486307 -34.187747 -22.501302 -1.297508 -43.087220 -2.241925 0.000000 0.000000 0.000000 3.702434 11.398204 -0.036118 13.987151 20.048834 -5.758660 19.286374 41.533998 -13.137994 0.527805 65.333696 -0.499071 0.000000 0.000000 0.000000 
-9.189884 76.514854 28.682293 0.000000 0.000000 0.000000 20.944379 4.009075 -19.156512 -68.107826 -0.950673 15.249540 39.831686 6.573444 -0.706876 -5.491804 6.007799 -2.225443 0.000000 0.000000 0.000000 24.043004 9.118740 -14.602886 -18.118065 -22.094176 -15.264988 80.649480 3.449438 -2.352870 -3.481880 -4.421546 10.286117 0.000000 0.000000 0.000000 24.303819 14.618181 -18.133954 -0.494167 5.002975 -4.215898 6.187879 9.100603 2.702070 15.989500 1.356842 -13.228842 0.000000 0.000000 0.000000 18.038620 2.673553 -8.164020 -27.126627 -15.683960 19.090432 0.000000 0.000000 0.000000 8.389971 5.312007 -5.748090 3.209040 1.968843 7.378959 18.331050 -37.728152 -17.024260 -0.507940 -41.516082 -1.476435 0.000000 0.000000 0.000000 3.340883 10.697872 -0.391772 14.495499 17.516710 -5.687185 12.860568 38.223279 -11.382468 0.527805 65.333696 -0.499071 0.000000 0.000000 0.000000 
-8.999179 76.476776 29.854113 0.000000 0.000000 0.000000 19.059798 5.548166 -18.628941 -67.227517 0.000299 14.968978 42.276979 5.481440 -0.514834 -5.912128 6.212010 -2.783198 0.000000 0.000000 0.000000 22.241697 10.528796 -14.580623 -21.731222 -22.231726 -15.237095 77.168017 4.578970 -3.615639 -3.705352 -4.118693 10.355056 0.000000 0.000000 0.000000 22.523266 15.404028 -17.913793 -0.894153 3.909628 -4.706279 7.071843 7.512372 1.538699 16.154748 0.549843 -12.670692 0.000000 0.000000 0.000000 18.497088 1.940855 -7.142640 -26.351143 -15.394007 18.256720 0.000000 0.000000 0.000000 8.501227 4.155663 -5.877039 3.219907 2.553657 6.698218 13.618339 -40.597671 -12.904579 0.063789 -40.053438 -1.014916 0.000000 0.000000 0.000000 3.017739 9.918705 -0.741681 14.945190 14.645686 -6.018766 6.930914 36.019139 -9.871227 0.527805 65.333696 -0.499071 0.000000 0.000000 0.000000 
